<?xml version="1.0" encoding="UTF-8"?><svg id="Layer_1" xmlns="http://www.w3.org/2000/svg" viewBox="0 0 360 431.84"><path d="M125.65,126.52c.55-.55,9.26.47,10.87.48,2.77.01,6.04-.65,8.88-.5,3.65.19,7.81,1.33,11.49,1.37,10.3.11,18.07-.87,28.85-.02,14.78,1.17,31.15,1.71,45.67,3.55.68.09,2.33.34,2.68.87.04,2.43.56,4.9.67,7.31,1.95,44.17-.45,90.72-1.79,134.8-1.15,13.82-.69,28.43-1.78,42.11-.33,4.1-.16,5.27-4.58,5.38-8.12.2-17.17-1.27-25.33-1.62-9.89-.42-19.84-.26-29.75-.85-11.37-.68-23.17-2.74-34.59-2.25-2.15.09-11.34,1.78-12.43.47l1.14-191.08ZM232.91,134.1l-25-1.82c-24.01-4.38-48.11-1.81-72.28-3.55-2.56-.18-5.9-1.25-8.65-1.32l.46,187.51,4.37-1.12c-1.13-5.86.35-11.78.07-17.72-1.79-37.49.63-74.74.41-112.13-.09-15.23.43-30.57.04-45.7-.09-3.36-1.4-3.24,3.36-3.69,26.26-2.49,61.12-1.63,87.27,2.19,1.25.18,2.42,1.01,3.78.87.33,11.59.27,23.2.44,34.8.51,33.23-.66,65.74-3.08,98.85-.89,12.19-1.59,25.94-.91,38.14.16,2.8,1.12,5.74.93,8.61l3.92.41c.92-.59.39-14.22.5-16.56.56-11.12,2.07-22.52,2.65-33.7.99-19.13,1.06-38.47,1.35-57.61.34-22.1.77-44.45.41-66.5-.06-3.31.12-6.64-.03-9.95ZM221.43,138.49c-3.03-.11-6.08-.64-9.1-.88-21.7-1.76-43.39-2.47-65.18-1.33-3.07.16-6.43.8-9.54.89.83,2.94.31,6.07.42,9.1,1.04,27.32-.09,54.67-.85,82.02-.53,19.03-2.52,39.52-1.37,58.52.47,7.78,2.93,15.76,2.24,23.7,12.46.45,24.97.55,37.49.42l42.33,3.12c.55-.54-.43-8.11-.46-9.51-.45-17.93,0-35.35.9-53.22,1.27-25.3,2.91-50.54,3.99-75.81.15-3.49.4-7.18.47-10.62.16-8.93-1.14-17.51-1.35-26.4ZM136.74,137.16c-4.48-.35-2.76,1.15-2.67,3.78,1.45,41.41-.24,82.66-.42,124.15-.06,12.95.66,26.11.41,38.98-.05,2.74.07,5.49.02,8.22,4.24-2.53,1.7-9.84,1.33-13.97-2.04-23.12-.67-46.84.01-70.02.33-11.1.59-22.19.85-33.29l.92-10.6-.46-47.24ZM224.98,138.49h-2.67c.97,9.16,1.94,18.04,1.79,27.29-.23,14.78-1.15,29.95-1.81,44.74-1.47,32.76-5.13,64.32-2.65,97.12.27,3.53-.87,6.98,1.56,9.97.77-.02-.65-12.85-.68-13.95-.64-19.57,2.18-39.07,3.12-58.54,1.15-23.8,1.42-47.17,1.32-70.91-.05-11.9.07-23.81.02-35.71ZM218.24,315.92c-18.36-1.42-36.72-2.99-55.14-3.66-4.54.16-9.12.59-13.74.48-2.56-.06-10.21-1.49-11.98-.48-.84.48-1.99,2.19-2.42,3.12,3.7-.49,7.57-.66,11.33-.46,19.52,1.03,38.97,2.85,58.5,3.58,5.1.19,10.38-.49,15.31.87l-1.86-3.45Z"/><path d="M147.24,219.76c1.84,2.01,1.56,7.43.07,9.77-3.7,5.79-11.1,2.58-9.5-4.17.32-1.35.53-2.34.8-3.63.89-4.33,5.88-4.97,8.63-1.96ZM144.72,220.5c-.87-1.58-3.86-1.19-4.43.44l4.43-.44ZM140.4,229.7c4.2,3.93,9.9-7.9,1.55-6.43-3.19.56-3.28,4.8-1.55,6.43Z"/><path d="M144.61,224.6c1.91,1.91-.87,5.79-3.26,3.92-2.73-2.14.9-6.29,3.26-3.92Z"/></svg>