<?xml version="1.0" encoding="UTF-8"?><svg id="Layer_1" xmlns="http://www.w3.org/2000/svg" viewBox="0 0 360 431.84"><path d="M175.59,302.64c.85.2,2.93.22,3.52.69.63.5.24,1.75.86,2.24,1.61,1.27,3.9-.11,6.02,3.73,1.55,2.81,2.25,10.51,2.43,13.97.7,13.55.97,27.26,1.29,40.82.16,6.69.04,13.24,0,19.91-.05,7.79.21,15.56.27,23.34-7.36,7.16-19.27,8.77-29.29,7.93-3.82-.32-13.86-2.94-14.44-7.28.91-27.15-1.12-54.99,0-82.06.31-7.43.1-12.36,6.02-17.48,1.16-1,2.63-1.64,3.73-2.48.6-.47.89-1.57,1.55-2,.7-.45,1.76-.25,2.07-.67.27-.36.73-4.88.75-5.72.31-16.87-2-35.7-2.59-52.74-.24-6.9,1.03-16.97-.64-23.3-.21-.79-1.04-1.18-1.15-2.43-.2-2.14,1.27-3.07,1.31-4.42.19-6.04-1.08-13.34-1.29-19.51-.28-8.29-.6-16.56-.88-24.82-.06-1.63.56-3.91.47-4.89s-1.36-1.22-1.36-2.64c0-2.88,1.45-6.71,1.8-9.78.61-5.31.38-11.03.89-16.4,1.61-16.67,5.64-37.11,11.52-52.77,3.65-9.71,18.07-34.55,26.46-40.04,4.81-3.15,11.79-4.56,16.29-7.21,1.6-.94,3.2-3.94,6.06-5.46,10.07-5.36,20.73-6.21,31.65-2.44,4.7,1.62,7.16,4.65,8.07,9.51,0,1.06-1.95,2.04-2.74,2.87-5.83,6.1-19.73,12.11-28.27,10.12-.81-.19-1.31-.95-1.97-1.13-.89-.25-1.88.02-2.79-.31-2.27-.83-4.97-3.54-7.23-2.39-2.44,1.23-10.66,7.65-12.94,9.68-6.92,6.16-14.83,18.51-18.77,26.89-8.52,18.11-8.98,34.96-10.71,54.46-2.04,22.99-4.62,48.19-3.1,71.38.22,3.29,2.18,8.22,2,10.66-.41,5.53.37,8.02.67,13.26.45,7.64-.03,15.77.43,23.51.18,3.11,1.16,6.6,1.34,9.74.33,5.65-.35,11.64-.01,17.3.37,6.15,1.92,12.27,2.69,18.37ZM251.38,37.12l2.68-.2c2.18-1.47-2.9-5.34-4.28-5.96-3.25-1.47-13.65-2.94-17.24-2.7-6.91.46-16.79,5.03-18.41,12.4,7.8-1.54,15.28-4.33,23.28-4.87,4.62-.31,9.35.16,13.97-.45v1.78ZM248.28,37.13l-15.69.49-12.69,3.04c8.65-1.39,17.64-1.11,26.24-2.8.58-.11,2.15-.05,2.14-.73ZM253.15,38.9c-8.07,1.25-16.09,3.5-24.22,4.37-4.25.46-9.03.02-13.02,1.16.84.88,3.94,2.81,5.02,2.77.76-.03,2.34-.83,3.39-1.01,8.46-1.47,16.91-2.82,25.09-5.51l3.75-1.79ZM210.14,39.34c-.48-.08-.89.07-1.35.2-13.71,4.19-21.53,14.5-28.81,26.17-14.11,22.6-18.9,53.98-20.37,80.27-.09,1.62-1.34,11.74-.91,12.18,3.33.35,6.29-.38,8.88-2.53.96-11.82,1.58-23.74,3.48-35.43.79-22.81,10.44-45.65,25.99-62.24,4.31-4.59,10.86-7.69,15.74-11.77-1.11-2.17-2.72-4.26-2.66-6.84ZM250.49,42.45l-5.76,1.99c1.6,1.74,4.46-.82,5.76-1.99ZM158.71,162.58c1.3.14,10.12-1.79,8.42-3.99-2.39,1.97-5.46,1.86-8.42,1.77v2.22ZM167.13,163.03l-8.42,1.77,1.77,52.32c1.47-.11,3.12.21,4.56-.1,2.82-.61,1.25-3.04,1.19-4.98-.48-14.96.2-29.92.9-44.8.07-1.4-.03-2.81,0-4.21ZM167.13,218.89l-6.21.44v2.66c2.29-.2,6.77.12,6.21-3.1ZM160.92,224.2l.43,26.84c1.63,19.56.85,39.33.66,58.96.32,3.56,9.5,2.1,10.82-.97-1.23-2.07-.6-3.98-.82-6.14-.47-4.56-1.51-9.18-1.77-13.75-.39-6.83.39-14.03.01-20.85-.2-3.54-1.18-7.46-1.37-11.05-.59-11.18.11-22.42-1.52-33.51l-6.45.47ZM178.66,304.45l-2.66-.45v1.77c1.17.17,2.22-.18,2.66-1.32ZM159.59,304.9c-2.74-.47-.55,1.92,0,1.33v-1.33ZM178.21,306.67c-.06-.06-1.71-.06-1.77,0-.86.86,1.28,2.48,1.77,1.1.07-.19.04-1.06,0-1.1ZM159.59,309.77l-.22-2.66c-1.5.56-1.17,1.23-1.11,2.66h1.33ZM155.16,308.89c-.65-.58-4.5,4-4.88,4.65-2.25,3.86-.63,8.33,3.63,9.66,4.61,1.45,14.82,2.15,19.6,1.59,3.01-.35,10.98-3.7,11.71-6.92.87-3.86-.5-8.67-4.57-9.87-1.36.06.44,3.62.56,4.31.39,2.09.21,4.26.99,6.32-6.45-.38-12.87.58-19.31.46-2.26-.04-9.7-.36-11.39-1.02-2.45-.97.14-2.7.71-3.87.2-.42-.13-1.1.32-1.93.61-1.11,2.29-1.93,2.62-3.4ZM156.93,310.65v-1.33s-1.33,1.11-1.33,1.11l1.33.22ZM179.1,309.77l-3.5-.4c-2.65,5.71-11.87,7.22-16.45,3.06l.39,3.3-1.28,1.57,16.11-.51c1.95-1.14.37-1.91.28-2.84-.18-1.92,2.79-3.23,4.45-2.86v-1.33ZM156.91,312.02c-1.19-.6-3.01-.4-3.08,1.3h3.1s-.02-1.3-.02-1.3ZM179.55,312.88c-.22-.22-3.13.05-3.55.66.88.9,2.15,1.21,3.27.7l.27-1.36ZM157.82,315.53v-1.33s-4.19.41-4.19.41l-1.58,2.69,3.11-.21-.89-2,3.55.44ZM179.1,315.98l-2.66-.44c-.82.99,3.09,2.29,2.66.44ZM186.64,320.41l-4.87,3.33c-7.19,4.83-20.59,3.97-28.63,1.56-1.77-.53-3.36-1.6-5.08-2.24l.14,84.46c4.7,5.15,13.88,5.44,20.49,5.11s13.54-2.04,18.75-6.08c-.02-19.67.71-39.27.07-58.89-.09-2.72-.81-6.13-.9-8.85-.21-6.12.19-12.29.02-18.41Z"/></svg>