<?xml version="1.0" encoding="UTF-8"?><svg id="Layer_1" xmlns="http://www.w3.org/2000/svg" viewBox="0 0 360 431.84"><path d="M78.27,181.46l-.58-.75c.02-1.18-.43-2.32-.52-3.47-.3-3.67-.21-7.31.34-10.73.22-1.37,0-2.78.55-4.11,1.71-.35.5,2.3.94,3.26l.66.67c2.71.26,5.69.24,8.36.51,17.25,1.75,35.71.94,53.14.61,43.63-.83,87.41-2.79,130.88-3.3,2.43-.03,4.91.37,7.32.47.38-.37-.79-4.43.88-4.88.71,1.21-.12,3.99.04,4.6s1.46.42,1.7,2.29c.54,4.25.47,8.78.48,13.06h-9.31c.8,5.35.3,10.79.43,16.2.68,28.87.85,57.88,1.37,86.89-2.02,15.8.63,31.59,1.7,47.38-.29,1.23-3.79.53-4.82.7.14,1.14,1,1.74,1.22,2.98,3.16,17.31-26.4,14.46-21.62-2.1-4.94-.24-9.91-.25-14.85-.45-15.08-.6-30.6.06-45.68.05-14.46-.02-28.08-.22-42.57-1.38-5.61-.45-11.25-1.44-16.86-1.76-4.06-.24-8.2.44-12.19-.45.96,2.02,2.39,5.9,1.1,7.97-.21.34-4.51,2.89-5.23,3.19-3.32,1.38-6.67,1.92-9.93,0-2.94-1.73-6.59-7.72-5.45-11.17-3.48.01-7.19,1.56-10.54.34-1.1-1.1-.39-25.57-.53-29.4-.45-12.54-2.15-25.14-2.7-37.65-.7-15.87.3-32.16.02-47.9-.19-10.58-1.1-21.13-1.33-31.69h-6.43ZM281.14,165.94c-6.76-.7-13.41,0-20.2.02-22.54.1-45.22,1.08-67.81,1.33-17.2.18-34.36,1.3-51.44,1.29-15.9,0-33.09.87-48.82.04-1.32-.07-15.33-2.32-15.29-.66.99,1.69.56,11.92,1.61,12.2,5.14-.27,10.36.26,15.49,0,4.84-.26,9.73-1.63,14.61-1.34,6.92.4,13.26,1.26,20.42.9,7.42-.37,14.65-2.15,22.15-1.79,23.78,1.15,47.94,2.21,71.86,1.35,10.77-.39,21.58-1.63,32.35-1.79,6.91-.1,12.79,1.69,19.53,1.34,1.93-.1,3.91-.81,5.97-.46l-.44-12.41ZM271.83,179.69c-1.51-.1-3.12.16-4.62-.04-8.09-1.06-16.62-1.22-24.89-.87-25.97,1.1-52.02,2.41-78.02,1.34-5.73-.23-11.58-1.51-17.32-1.34-13.93.4-27.84,3.49-42.13.89l-18.56,1.75c-1.84,1.32.46,15.99.61,18.89,1.22,23.76.41,47.43,1.77,71.38.27,4.78.31,9.63.45,14.41l21.51.44c6.94,2.89,14.2,1.04,21.33.93,13.86-.21,27.69,1.58,41.65,1.75,17.22.21,35.17-1.03,52.31-.02,12.81.75,24.14,2.35,37.24,2.13,3.32-.05,6.98-.69,10.42-.35l-1.78-111.28ZM273.6,292.29c-6.26-.07-12.57-.02-18.86-.02-11.08,0-21-2.02-31.93-2.18-7.9-.11-15.92.49-23.95.44-6.82-.04-14.53-.95-21.27-.9-2.67.02-6.13.93-8.88.92-7.67-.01-16.42-2.24-23.94-2.29-9.1-.06-20.36,1.74-29.22.43-5.33-.78-8.65-1.48-14.24-1.72-3.92-.17-7.83-.38-11.75-.45l.89,40.79c3.35.41,6.71-.75,9.96-.91,15.28-.76,31.39,1.08,46.58,2.23,32.26,2.44,64.77.96,97.09,1.8,10.31.27,20.58-.16,30.84-.9l-1.34-37.24ZM108.57,327.83l-4.81-.51c-.67.75,4.26,8.61,6.61,4.61l-1.81-4.09ZM110.42,327.76c3.7,3.44.57,8.79-3.97,5.96-.96-.6-5.16-6.64-5.78-5.96.36,3.19,2.03,7.79,4.91,9.5,2.74,1.63,9.58,1.49,9.96-2.38.27-2.7-1.34-8.67-5.12-7.11ZM117.07,335.29c4.66.17,1.2-9.39-1.33-7.53,1.52,2.34,1.43,4.84,1.33,7.53ZM252.32,331.75c-.28,4.31.07,8.43,4.27,10.59,3.88,1.99,12.09,2.93,13-2.86.34-2.18-.31-8.9-3.52-8.17v6.87c0,1.09-2.17,2.41-3.33,2.47-1.05.05-4.21-1.03-4.21-2.02v-6.87h-6.21ZM270.45,331.35l-1.28.17,1.57,3.75.64,4.01c.99-2.95.11-5.2-.93-7.93ZM264.29,331.75h-4.44c.17,1.98-.33,4.34.2,6.25.57,2.09,4.24,1.25,4.24.18v-6.43Z"/><path d="M263.29,336.3c1.18,1.18-.15,3.11-1.65,2.34-2.09-1.07.05-3.95,1.65-2.34Z"/><path d="M107.54,329.97c1.31-.35,2.82,1.72,1.29,2.19-2.11.65-2.54-1.86-1.29-2.19Z"/><path d="M259.1,113.85l16.4,36.88,6.3-1.34c.47.12,3.95,7.69,3.31,8.95-.39,1.31-2.71,1.62-3.88,1.65l-.08,3.66-.65.67-1.49.05-1.18-5.3c-1.58-.05-3.19.13-4.77.01-6.51-.47-10.06-.16-16.28.02-4.24.12-9.67-.53-13.68-.03-.6.07-3.51,1.17-3.66,1.4-.64,1.02.85,5.13-.33,6.58-.34.25-4.8.8-5.67.85-1.4.08-2.78-.35-3.91-.29-6.04.33-11.78,1.32-17.91.28l-.44-8.37c-3.74-.05-7.5.06-11.25.02-1.83-.02-3.59-.55-5.73-.48-3.64.13-7.42,1.18-11.1,1.22-1.47.58-1.18,3.23-.69,4.42s2.18.64,2.78,1.64c-1.12,1.38-3.11-.19-4.56-.08-.86.07-1.57.81-2.47.74-.34-1.84,1.73-1.45,2.12-3.41.58-2.9-1.75-3.38-4.17-3.62-7.42-.73-15.23-.97-22.84-1.34-11.72-.56-5.16,3.03-6.81,10.81l-15.87.19c-.66,2.66,2.74,3.74,4.42,5.49,1.24,1.29,1.72,3.28,3.28,3.36,3.02.15,2.16-1.48,3.51-2.7.95-.85,2.62-.86,3.21-1.41,1.59-1.51,1.07-6.32,5.99-3.79s-1.29,5.93-3.01,7.45c-.41.36-.43,1.21-.81,1.6-2.67,2.77-5.49,1.17-8.46,1.45-1.17.11-2.07.71-3.12.85-3.44.44-5.48-1.58-6.13-4.81-1.32,1.4-5.61,5.34-7.44,5.28-1.61-.05-5.84-2.29-5.96-4.18.04-.53,2.93-4.65,3.49-5.28,1.01-1.14,2.96-1.66,3.08-3.3-3.61.79-7.29-.42-11.01,0,.41-3.36-.66-7.01,0-10.12-3.78-.37-7.5.61-11.23.87-5.37.38-11.79.17-17.06.99-.43.07-2.5.72-2.56,1.06l.56,3.16,3,.53c-1.61,2.17-3.71.53-5.7.42l-.02-3.95c-7.92,1.78-1.68-9.68,1.52-9.71,1.39-.02,2.67,1.24,4.15.86l18.84-36.5c8.22.62,16.1-1.79,24.15-2.62,1.57-.16,3.24.11,4.83-.01,33.69-2.65,67.99-2.52,101.74-1.33,3.72.13,8.17.85,11.87.81,2.38-.02,12.06-1.54,13.33-.25ZM277.25,158.21l-19.21-43.52c-11.02.29-21.96.36-32.96-.06-12.38-.48-24.95-2.07-37.45-1.33-1.13.07-5.54.52-5.96,1.19-.8,3.34-.3,7.04-.38,10.51-.22,9.49-.6,21.21.42,30.81.07.64.15,1.64.73,2.01,1.46.92,19.44.33,22.84.39,2.34.04,5.36,1.28,7.67-.22.69-.45,1.73-2.33,2.38-2.68,1.86-1,14.76-.8,17.69-.62,3.61.22,7.5,1.42,11.21,1.34l-.88,2.19c4.47-.11,8.98.16,13.45.02,2.02-.06,4.63-.93,6.59-.94,2.54-.01,6.18.8,8.81.91,1.68.07,3.38-.04,5.06,0ZM148.67,157.33c9.27.37,19.61,1.73,28.86.91,1.17-.1,2.6-.15,2.85-1.57l-1.11-42.04c-.91-1.86-5.41-.46-7.03-.42-15.42.37-30.89.25-46.25,1.75-5.75.56-11.35,1.93-17.16,2.21-1.73.08-3.4-.13-5.1-.28l-21.12,41.64c2.07-.26,4.8-.82,6.82-.88,4.53-.14,9.02-.2,13.63-.46,2.74-.15,6.8.47,9.26,0,1.48-.28,1.92-2.18,3.56-2.61,3.36-.87,11.89-.82,15.81-.92,2.62-.07,14.84-.4,16.33.22,1.9.79.53,2.34.64,2.44ZM283.86,157.77c-1.49-4.2-1.48-9.19-7.3-6.19-.78,1.04,2.21,5.69,2.88,6.87l4.42-.68ZM83.06,155.14c-4.05-.74-6.06,1.54-6.6,5.28,5.05.91,4.8-1.67,6.6-5.28ZM240.7,157.34c-2.38-.16-4.95-1.12-7.27-1.32-3.08-.26-14.61-.52-17.05.55-.68.3-1.37.94-1.66,1.64,7.52-.86,16.26,1.31,23.57.45.92-.11,2.05-.33,2.41-1.33ZM146.03,156.01l-7.04.87c1.91-.32,4.46.37,6.21.2.8-.08.98-.24.83-1.07ZM126.43,156.89c-3.56.19-7.41,0-11.01,0-.09,0-1.09,1-1.1,1.32,5.16-.11,10.32-.4,15.41-1.32-.51-1.27-2.75-.02-3.3,0ZM144.27,158.21c-3.92.19-7.76-.71-11.69-.46-2.9.19-5.88,1.05-8.79,1.33-3.43.33-7.06,0-10.5.51l-.54.35.74,7.47c3.46-.3,8.31.11,11.6-.42,1.24-.2,2.38-1.43,3.54-1.31.9.1,1.21,1.13,2.22,1.33,1.58.31,3.95-.14,5.71.01,2.7.22,5.44.73,8.15.88l-.44-9.69ZM237.62,159.53l-23.78-.22-.78.93.34,6.34c1.36-.2,3.3.29,4.54-.01.33-.08.26-.78.61-.86,1.44-.35,5.8-.84,7.38-.91,3.78-.16,7.9.73,11.69.9v-6.16ZM129.29,169.66c-2.67.06-5.74-.9-6.16,2.64l4.11.84,2.05-3.48ZM147.46,172.41c-.42.41-.63,1.83-1.38,2.31l2.33,1.51c1.01-1.2,4.14-4.35.94-4.39-.52,0-1.51.22-1.88.58ZM131.5,174.94c.09-2.22-1.81-2.98-3.07-1.1,1.03,1.22,1.47,1.81,3.07,1.1ZM127.09,175.39l-5.06-1.6-3.74,3.58c1.11,1.22,2.37,2.49,4.1,2.77.88-.29,5.28-4.1,4.7-4.75ZM134.23,179.46c.24-.27,1.12-.16,1.47-.54.59-.67-1.73-3.58-2.43-3.09l-2.2,2.85,2.42,1.99c1.11.3.36-.78.74-1.2ZM144.71,175.83c-1.54-.13-2.42.71-3.08,1.98-.11.37,1.36.32,1.68.77.51.73-.26,2.58,2.28.1l-1.3-.92.42-1.93Z"/><path d="M248.68,186.31c.18.3,1.57.45,2.18,2.04.23.59.4,3.36.35,4.01-.09,1.3-2.17,2.03-2.5,3.14-.21.71-.24,2.7-.09,3.44.27,1.37,3.05,1.81,2.88,3.78-.09,1.1-3.15,5.46-3.97,5.24-.52-.14-.5-1.93-1.98-1.32-1.29,2.33,3.61,4.85,4.8,3.93,1.29-.99-1.05-2.29-1.28-2.84-.71-1.64,2.81.35,2.65,2.18-.08.95-3.53,5.33-4.43,5.75-2.05.96-5.94-1.58-5.72-3.91.15-1.53,2.45-4.7,3.73-5.56,1.52-1.03,3.95-.87,3.75-3.95l-2.37.47-.93-.9c-1.45,1.07-1.58,3.13-3.75,2.64-.25-2.47,1.89-4.31,3.99-5.11.96-3.43-2.09-4.86-2.25-7.89-.18-3.29,2.31-4.55,1.76-7.45-.17-.88-.81-1.29-.9-2.64-.19-3.03,1.36-6.97,5.01-5.88,1.26.38,1.69,3.66,1.55,4.86-.23,2.02-1.88,2.41-2.34,3.44-.05.12-.23,2.44-.17,2.55ZM246.43,181.99c.92-.02,2.15.31,2.6-.73.48-1.45-.89-5.31-2.53-2.95l-.07,3.67ZM248.2,188.15l-.67,1.32-1.53-1.32c-.35,1.8-.84,3.47.05,5.22,2.45.67,3.03-1.1,3.05-3.23,0-.44-.19-2-.89-1.99ZM245.1,208.4c-.8-.56-2.49,2.85-2.9,3.54.86,2.09,3.06,2.21,4.91,2.96l2.4-3.41c-1.98.19-3.92-1.22-4.41-3.08Z"/></svg>