<?xml version="1.0" encoding="UTF-8"?><svg id="Layer_1" xmlns="http://www.w3.org/2000/svg" viewBox="0 0 360 431.84"><path d="M147.44,148.71c.09-.17-.26-.8.29-.9l30.07-3.55c18.94.36,37.86-.77,56.8-.45,3.78.06,7.82.92,11.72.02,1.47,3.24.66,6.6.88,9.99,1.93,30.02,4.77,59.97,5.8,89.96.35,10.11.88,20.08,1.33,30.15.1,2.35-.38,15.35.07,16.11.14.23,1.03.3,1.44.98.46.77,1.22,7.91,1.16,9.08-.1,2.14-3.76,2.28-5.59,2.43-18.17,1.45-36.38.33-54.52-.45-12.15-.53-24.26-.55-36.36-.89-1.99-.05-9.95.64-10.92-.6-1.09-1.39.13-7.11-.75-9.25.31-2.01,3.12-2.21,3.38-2.62.22-.35.13-3,.09-3.72-.29-5.57-1.14-11.25-1.37-16.81-.89-21.82.42-43.84-.41-65.65-.59-15.6-2.98-31.37-3.56-46.98-.07-1.97-.34-5.35.44-6.87,1.14,3.31.64,6.64.89,9.97.66,8.72,1.65,17.47,2.21,26.17,2.12,33.34,1.11,66.88,3.09,100.21.08,1.41.67,2.75.46,4.2h2.22s-1.35-51.63-1.35-51.63c-.65-24.93-1.97-47.48-3.97-72.29-.32-3.95-.13-8.02-.87-11.94.2-1.81,1.34-2.12,2.91-2.42,22.08-4.2,46.74-3.33,69.11-3.13,6.91.06,13.77-.08,20.64-.46-.06,5.05.89,10.25,1.29,15.34,1.24,15.81,3.46,31.82,3.61,47.85s-.54,33.99.41,50.54c.52,9.17,3.04,18.56,2.2,27.85l1.36.28c-.16-5.09.21-10.23.02-15.32-.32-8.72-.64-17.39-.89-26.16-.91-32.83-3.31-65.64-5.78-98.41-.11-1.39.06-2.82,0-4.21-.66.33-1.21.45-1.97.47-29.3.73-56.68-.83-86.05,2.19-3.15.32-6.55,1.56-9.54.88ZM241,148.71c-10.98,1.26-22.02-.28-33.05-.02-6.63.16-14.17.48-20.82.91-11.94.77-23.85,2.49-35.7,3.99l4.88,59.4.99-.55,1.5-6.03c3.65-.57,7.38-.25,11.03-.51,2.08-.15,4.58-.74,6.66-.88,21.6-1.45,42.78.3,64.31-.43,1-.03,1.87-.45,2.86-.46-.33,2.83.24,5.42,2.22,7.53.04-1.69-.04-3.4,0-5.09.35-12.78-2.34-25.37-3.54-38.14-.28-2.99.09-6.17-.14-9.17-.28-3.51-1.12-7.02-1.19-10.56ZM238.79,206.34l-52.12-.46c-8.18.51-16.36,1.53-24.59,1.35.41,9.09-.06,18.67.45,27.71.81,14.27,2.62,28.72,3.54,43.01.2,3.06-1.27,6.53,2.55,7.21,7.12,1.25,16.93.54,24.27.57,14.67.05,27.67-.97,42.15-1.79,2.72-.15,5.48.1,8.2,0l-.43-22.85c-1.39-13.09-.95-26.33-2.24-39.43-.5-5.06-1.95-10.18-1.77-15.3ZM241.89,205.9l-2.24.69c1.54,8.64,2.43,17.38,3.12,26.13.74,9.36,1.33,18.96,1.8,28.35.33,6.76-.25,14.08.43,20.85.32,3.22,1.48,3.84,3.98,5.55.51-8.39-1.56-16.77-2.21-25.05-.56-7.17-.72-15.73-.91-23.03-.21-8.28.11-16.55,0-24.83-1.75-2.74-4.64-5.02-3.98-8.65ZM160.74,207.23h-1.33c-.21,1.41-.6,4.61-1.12,5.76-.45,1.02-1.97.98-2.02,1.99,1.64,21.55.87,43.15,1.79,64.76.1,2.35.67,4.91.69,7.3,1.72-1.22,5.31-1.52,5.56-3.74-.58-11.09-1.05-22.19-1.8-33.27-.37-5.44-1.52-10.94-1.79-16.39-.43-8.67.36-17.7.02-26.4ZM245.12,286.9c-.34-.25-.44-1.15-1-1.42-1.35-.67-10.4.07-12.65.23-12.03.87-23.45,1.72-35.47,1.8-8.3.06-18.98.46-27.02-.51-1.21-.15-2.17-.9-3.58-.89-1.65,0-4.41,1.41-5.54,2.69l88.02.45c-.04-1.4-1.92-1.74-2.75-2.35ZM242.33,291.47c-23.18.18-46.23-.6-69.42-.47-1.15,0-2.24.48-3.51.48-5.01.03-9.9-.88-14.88-.24,4.46.49,9.05.39,13.52.67,11.01.7,22.19,1.64,33.24,1.79,6.26.09,13.16-1.15,19.51-1.37s13.97.71,19.99.03c.66-.07,1.37-.09,1.54-.9ZM254.75,292.8c-12.1,1.98-24.39,1.01-36.6,1.31-15.2.37-30.4,1.53-45.67.48l-21.49-1.79c.64,2.09.64,4.11,0,6.2,2.4.82,4.82-.08,6.87-.03,23.74.61,47.57,1.95,71.38,1.79,8.5-.06,17.02.08,25.52.02-.13-2.81-.59-5.16,0-7.98Z"/><path d="M243.19,199.66l-24.59.46-10.61.92c-16.73-.75-33.25,1.43-49.91,2.2l-3.22-46.01,1.22-.99c6.2-.84,12.44-.51,18.65-.87,5.87-.33,11.85-1.66,17.72-.86,15.64-2.22,31.5-1.83,47.23-2.07l3.51,47.21ZM236.57,153.59l-78.07,3.74,4.46,42.37c6.11.3,12.04-1.47,18.02-2.16,13.27-1.54,28.21-1.57,41.6-1.85,5.39-.11,10.81.12,16.2.02-2.33-13.93-1.49-28.09-2.22-42.11ZM238.34,153.59c-1.88-.16-.45,3.57-.42,4.64.37,11.76-.33,24.18,1.86,35.83.18.98.66,2.17,1.67,2.54l-3.11-43ZM157.19,157.13l-1.34.23,4.66,43.21c1.41-1.93.37-5.03.67-7.31l-3.99-36.14ZM240.12,197.92c-1.24-1.59-4.46-.76-6.43-.89-22.2-1.46-48.33.82-70.46,3.6-.69.09-2.9.12-2.49,1.28,14.69-1.11,29.4-3.09,44.14-2.2,9.63-.79,19.2-1.32,28.79-1.81,2.14-.11,4.31.12,6.45.01Z"/><path d="M234.35,193.94c-.2.83-.78.84-1.49.85-5.79.03-12-.09-17.8.12-17.05.62-34.08,2.55-51.22,2.12-.1-.77,1.01-.42,1.55-.44,4.72-.19,9.47.18,14.19,0,2.45-.1,5.53-.76,7.99-.88,2.21-.11,4.45.12,6.67.01,6.16-.29,12.41-1.14,18.59-1.37,7.17-.26,14.41.42,21.52-.42Z"/><path d="M233.91,192.16c.1.77-1.01.42-1.55.44-17.3.71-34.58,1.25-51.9,1.31-2.93.11-6.4.48-9.29.5-1.6.02-3.23-.74-5.1-.04.23-.8,2.19-.85,2.86-.9,5.83-.4,12.28.15,18.22.04,5.6-.11,11.26-.31,16.81-.44,9.98-.24,19.94-.75,29.95-.9Z"/><path d="M222.82,176.2c.1.77-1.01.42-1.55.44-4.58.18-9.16.28-13.75.44-.74.03-1.45.41-2.22.44-10.13.31-20.35.31-30.59.9-3.35.19-6.5,1.15-9.98.43-.1-.77,1.01-.42,1.55-.44,1.77-.07,3.55.07,5.32,0,16.99-1.92,34.14-1.52,51.22-2.21Z"/><path d="M233.46,187.73c-.07.71-1.9.83-2.44.88-3.12.26-6.59-.11-9.77-.01-1.16.03-2.25.44-3.51.48-11.77.39-22.85-.01-34.59-.48-5.71-.23-11.42.38-17.1.24,5.78-.68,11.69-.92,17.54-.68,12.95.52,23.96.32,36.79.02,4.37-.1,8.77.31,13.07-.44Z"/><path d="M234.79,183.3c.1.77-1.01.42-1.55.44-2.66.11-5.35-.16-8-.02s-6.12.86-8.83.92c-11.61.27-21.9.01-33.71.87-1.56.11-3.33.78-4.89.87-4.15.26-8.46-.17-12.63,0-.1-.77,1.01-.42,1.55-.44,3.65-.15,7.47.23,11.08,0,1.56-.1,3.32-.75,4.89-.87,11.75-.88,21.68-.71,33.27-.88,2.83-.04,6.41-.8,9.27-.92,3.17-.14,6.38.14,9.55.02Z"/><path d="M230.36,164.68c.1.77-1.01.42-1.55.44-1.92.08-3.85-.08-5.76,0-.86.04-1.7.44-2.65.46-2.23.04-4.46-.06-6.69,0-3.5.1-7.07.3-10.63.42-5.1.17-10.21-.05-15.29.44l5.55-.88c5.37.66,10.78-.71,15.94-.91,2.53-.1,4.87.51,7.09.48,4.67-.06,9.3-.74,13.99-.46Z"/><path d="M208.19,181.52c.1.78-1,.42-1.55.44-11.12.46-22.65-.56-33.72-.02-2.26.11-4.75.81-7.06.93-.37.02-1.62.13-.9-.47,1.89.45,4.61-.88,6.21-.88h37.03Z"/><path d="M197.99,169.11c.1.77-1.01.42-1.55.44-2.2.09-4.46-.15-6.65,0-3.95.27-8,1.07-11.98,1.32-5.36.34-10.81.41-16.18.44-.1-.77,1.01-.42,1.55-.44,6.8-.28,13.61-.46,20.4-.89,4.78-.31,9.54-1.45,14.41-.88Z"/><path d="M233.46,162.46l-1.55.44-30.83.22c10.75-.89,21.57-.66,32.37-.66Z"/><path d="M218.83,171.77c.1.77-1,.42-1.55.44-4.57.19-9.2-.2-13.77-.02-2.31.09-5.23.82-7.52.9-4.13.15-8.3-.13-12.43-.01-1.05.03-2.02.46-3.07.48-6.12.13-12.32.05-18.43-.24,11.14-.48,22.35-.26,33.5-.65,2.45-.09,5.49-.83,7.95-.92,5.09-.19,10.23.17,15.31.02Z"/><rect x="193.55" y="160.68" width="19.07" height=".44"/><path d="M234.79,160.68c1.96,1.46-4.01.18-4.28.16-.79-.04-1.63.34-2.56.29-2.74-.12-5.85-.68-8.67-.68,0-.78,14.09.32,15.52.22Z"/><path d="M218.83,191.28c.1.77-1.01.42-1.55.44-2.66.11-5.35-.11-8-.02-1.05.04-2.02.46-3.07.48-3.11.05-6.23-.01-9.35,0-5.98.03-12.2-.57-18.18-.48-1.26.02-11.31,1.86-11.29.69,3.52,0,7.42-1.06,10.85-1.12,6.29-.13,12.79.51,19.07.48,7.19-.04,14.34-.57,21.53-.46Z"/><path d="M232.58,168.22c.1.77-1.01.42-1.55.44-6.41.26-12.88.1-19.29.44l9.07-.9,11.77.02Z"/><path d="M181.58,164.23c.1.77-1.01.42-1.55.44-2.35.1-4.75-.15-7.09,0-3.68.25-7.43,1.45-11.31.88l11.31-1.32h8.64Z"/><rect x="223.27" y="175.76" width="9.76" height=".44"/><rect x="182.03" y="160.68" width="9.31" height=".44"/><rect x="182.03" y="157.58" width="9.31" height=".44"/><path d="M231.69,180.64c.1.77-1.01.42-1.55.44-4.21.17-8.44.23-12.64.44l6.43-.88h7.75Z"/><rect x="166.51" y="167.33" width="8.43" height=".44"/><rect x="173.16" y="161.13" width="8.43" height=".44"/><rect x="219.72" y="190.83" width="7.54" height=".44"/><rect x="164.73" y="158.91" width="7.54" height=".44"/><rect x="181.14" y="166.45" width="6.21" height=".44"/><rect x="159.85" y="162.01" width="6.21" height=".44"/><path d="M228.14,171.77c.1.77-1.01.42-1.55.44-1.4.06-2.82-.04-4.22,0-.1-.77,1.01-.42,1.55-.44,1.4-.06,2.82.04,4.22,0Z"/><path d="M226.37,156.25c.1.77-1.01.42-1.55.44-1.4.06-2.82-.04-4.22,0-.1-.77,1.01-.42,1.55-.44,1.4-.06,2.82.04,4.22,0Z"/><path d="M236.12,156.25c.1.77-1.01.42-1.55.44-1.4.06-2.82-.04-4.22,0-.1-.77,1.01-.42,1.55-.44,1.4-.06,2.82.04,4.22,0Z"/><path d="M196.66,163.79c.1.77-1.01.42-1.54.44-1.25.05-2.52-.03-3.77,0-.1-.77,1.01-.42,1.54-.44,1.25-.05,2.52.03,3.77,0Z"/><path d="M210.4,168.67c.1.77-1.01.42-1.54.44-1.11.05-2.23-.03-3.33,0-.1-.77,1.01-.42,1.54-.44,1.11-.05,2.23.03,3.33,0Z"/><path d="M165.17,167.78c.1.77-1.01.42-1.54.44-1.11.05-2.23-.03-3.33,0-.1-.77,1.01-.42,1.54-.44,1.11-.05,2.23.03,3.33,0Z"/><path d="M180.69,166.89c.1.77-1.01.42-1.54.44-1.11.05-2.23-.03-3.33,0-.1-.77,1.01-.42,1.54-.44,1.11-.05,2.23.03,3.33,0Z"/><path d="M205.08,169.11c.1.77-1.01.42-1.54.44-1.11.05-2.23-.03-3.33,0-.1-.77,1.01-.42,1.54-.44,1.11-.05,2.23.03,3.33,0Z"/><path d="M218.39,156.7c.1.78-1,.41-1.54.44-.96.05-1.93-.03-2.89,0-.1-.78,1-.41,1.54-.44.96-.05,1.93.03,2.89,0Z"/><path d="M186.9,164.68c.1.78-1,.41-1.54.44-.96.05-1.93-.03-2.89,0-.1-.78,1-.41,1.54-.44.96-.05,1.93.03,2.89,0Z"/><path d="M213.06,181.97c.1.78-1,.41-1.54.44-.96.05-1.93-.03-2.89,0-.1-.78,1-.41,1.54-.44.96-.05,1.93.03,2.89,0Z"/><path d="M209.96,156.7c-.62,1.02-2.96.17-3.99.43.58-1.02,2.96-.18,3.99-.43Z"/><path d="M231.69,190.39c-.62,1.02-2.96.17-3.99.43.58-1.02,2.96-.18,3.99-.43Z"/><path d="M235.68,190.83c-.39,1-2.67.19-3.54.43.39-1,2.67-.19,3.54-.43Z"/><path d="M218.83,160.69c-.39,1-2.67.19-3.54.43.39-1,2.67-.19,3.54-.43Z"/><path d="M217.06,181.52c-.39,1-2.67.19-3.54.43.39-1,2.67-.19,3.54-.43Z"/><path d="M163.84,159.36c-.39,1-2.67.19-3.54.43.39-1,2.67-.19,3.54-.43Z"/><path d="M180.69,158.03c-.39,1-2.67.19-3.54.43.39-1,2.67-.19,3.54-.43Z"/><rect x="197.1" y="163.35" width="3.1" height=".43"/><rect x="187.35" y="164.23" width="3.1" height=".43"/><rect x="233.02" y="167.78" width="2.66" height=".43"/><path d="M248.66,143.98c-1.55-.28-3.14.6-4.61.46-.62-.06-1.27-.3-.67-.89,1.55-.3,4.92-2.21,5.28.43Z"/><path d="M244.7,146.18c.7.7-.62,2.01-1.32,1.32s.62-2.01,1.32-1.32Z"/></svg>