<?xml version="1.0" encoding="UTF-8"?><svg id="Layer_1" xmlns="http://www.w3.org/2000/svg" viewBox="0 0 360 431.84"><path d="M235.55,145.56c1.46,3.22.66,6.56.87,9.93,1.91,29.81,4.73,59.55,5.76,89.33.35,10.04.88,19.94,1.32,29.94.1,2.33-.38,15.24.07,16,.13.22,1.03.3,1.43.98,1.17,1.95.53,6.83.93,9.26-.28.38-6.42.71-7.54.73-6.7.1-13.53.02-20.22.14-19.73.36-39.07.35-58.58-.94l-21.73,1.73c-1.17-2.13-.13-4.24-.02-6.32.05-1.07-.52-2.14-.4-2.99.2-1.4,2.41-2.51,3.3-3.58-.12-1.94-.7-4.31-.76-6.18-.26-9,.44-18.25.04-27.33-.2-4.63-1.17-9.4-1.36-14.05-.65-15.98.71-32.49.04-48.46-.57-13.58-2.53-27.33-2.24-40.94.03-1.29.28-2.52.67-3.74.97-1.24,21.04-2,24.23-2.19,22.71-1.36,45.5-1.27,68.28-.85,1.7.03,4.13-.37,5.91-.47ZM240.85,289.97c-.15-5.05.21-10.16.02-15.21-.32-8.66-.64-17.27-.88-25.97-.91-32.6-3.28-65.19-5.74-97.72-.1-1.38.06-2.8,0-4.18-.66.32-1.2.45-1.95.47-25.96.65-51.8-.54-77.53,1.73-5.52.49-11.06.58-16.49,1.78l1.3,28.37c4.17,35.35,1.83,71.09,3.94,106.56.08,1.4.66,2.73.46,4.17h2.21s-1.34-51.27-1.34-51.27c-.65-24.75-1.95-47.15-3.94-71.78-.32-3.92-.13-7.97-.87-11.86.2-1.79,1.33-2.1,2.89-2.4,21.93-4.17,46.41-3.3,68.63-3.11,6.86.06,13.68-.07,20.49-.46-.06,5.02.88,10.18,1.28,15.23,1.24,15.7,3.44,31.6,3.58,47.52.14,16.35-.53,33.75.4,50.19.52,9.11,3.01,18.43,2.19,27.66l1.35.28ZM230.28,150.41c-10.91,1.26-21.87-.28-32.82-.02-6.58.16-14.07.48-20.67.9-11.86.77-23.69,2.47-35.46,3.96l4.85,58.99.98-.55,1.49-5.99c3.62-.57,7.33-.25,10.95-.51,2.07-.15,4.55-.73,6.61-.87,21.45-1.44,42.48.3,63.87-.42.99-.03,1.86-.45,2.84-.46-.32,2.81.23,5.38,2.2,7.48.04-1.68-.04-3.37,0-5.06.35-12.69-2.32-25.19-3.52-37.87-.28-2.97.09-6.13-.14-9.11-.27-3.49-1.12-6.97-1.19-10.48ZM228.08,207.64l-51.76-.46c-8.12.51-16.25,1.52-24.42,1.34.41,9.02-.06,18.54.45,27.51.8,14.17,2.6,28.52,3.51,42.71.2,3.04-1.26,6.49,2.53,7.16,7.07,1.24,16.82.54,24.1.56,14.57.05,27.48-.96,41.86-1.78,2.7-.15,5.45.1,8.14,0l-.42-22.69c-1.38-13-.94-26.15-2.23-39.16-.5-5.03-1.94-10.11-1.75-15.19ZM231.16,207.2l-2.22.69c1.53,8.58,2.41,17.26,3.1,25.95.73,9.29,1.32,18.83,1.78,28.15.33,6.72-.24,13.99.43,20.7.32,3.2,1.47,3.82,3.95,5.51.51-8.33-1.55-16.65-2.19-24.88-.56-7.12-.72-15.63-.9-22.87-.21-8.22.11-16.44,0-24.66-1.74-2.72-4.6-4.98-3.96-8.59ZM150.58,208.52h-1.32c-.21,1.4-.6,4.58-1.11,5.72-.45,1.01-1.96.97-2.01,1.97,1.62,21.4.87,42.85,1.78,64.31.1,2.34.66,4.87.68,7.25,1.7-1.22,5.28-1.51,5.52-3.72-.57-11.02-1.04-22.04-1.79-33.04-.37-5.41-1.51-10.87-1.77-16.28-.42-8.61.35-17.57.02-26.21ZM234.37,287.63c-.34-.25-.44-1.14-1-1.41-1.34-.66-10.33.07-12.56.23-11.95.87-23.29,1.7-35.22,1.79-8.24.06-18.84.46-26.84-.51-1.2-.14-2.16-.89-3.56-.89-1.63,0-4.38,1.4-5.5,2.68l87.41.45c-.04-1.39-1.91-1.73-2.73-2.34ZM231.6,292.17c-23.01.18-45.91-.59-68.93-.46-1.14,0-2.23.47-3.48.48-4.97.03-9.83-.87-14.78-.24,4.43.49,8.98.38,13.43.66,10.94.69,22.03,1.63,33.01,1.78,6.21.09,13.06-1.14,19.38-1.36s13.88.71,19.85.03c.66-.07,1.36-.09,1.52-.89ZM243.49,293.48c-11.86,2.01-23.93,1.01-35.91,1.3-15.17.37-30.11,1.23-45.36.48-7.1-.35-14.23-1.64-21.35-1.55.66,2.24.77,5.06,0,7.25,3.58-.25,7.2-.24,10.78-.44,10.89-.61,21.37-.43,32.15,0,16.71.67,33.52.23,50.18.02,3.19-.04,6.33-.05,9.49-.46v-6.6Z"/><path d="M232.45,201l-24.42.46-10.53.92c-16.61-.75-33.02,1.42-49.56,2.19l-3.19-45.68,1.21-.99c6.16-.84,12.36-.51,18.52-.86,5.82-.33,11.77-1.65,17.6-.86,15.53-2.21,31.28-1.82,46.9-2.05l3.48,46.88ZM225.88,155.25l-77.52,3.71,4.43,42.07c6.07.29,11.96-1.46,17.9-2.14,13.17-1.53,28.02-1.56,41.31-1.84,5.36-.11,10.74.12,16.09.02-2.31-13.84-1.47-27.9-2.2-41.82ZM227.63,155.25c-1.87-.16-.45,3.54-.42,4.6.37,11.68-.33,24.01,1.85,35.58.18.97.66,2.15,1.66,2.52l-3.08-42.7ZM147.05,158.77l-1.33.23,4.62,42.91c1.4-1.91.37-4.99.66-7.26l-3.96-35.89ZM229.4,199.27c-1.23-1.58-4.42-.75-6.38-.88-22.05-1.45-47.99.81-69.97,3.58-.69.09-2.88.12-2.47,1.27,14.59-1.11,29.19-3.06,43.83-2.18,9.56-.79,19.07-1.31,28.59-1.8,2.12-.11,4.28.12,6.4.01Z"/><path d="M223.68,195.32c-.2.83-.77.84-1.48.84-5.75.03-11.91-.09-17.67.12-16.93.62-33.84,2.53-50.86,2.11-.1-.77,1-.41,1.53-.44,4.68-.19,9.41.18,14.09,0,2.43-.1,5.49-.75,7.94-.87,2.2-.11,4.42.12,6.62.01,6.12-.29,12.32-1.13,18.46-1.36,7.12-.26,14.31.42,21.37-.42Z"/><path d="M223.23,193.56c.1.77-1,.41-1.53.44-17.18.71-34.34,1.24-51.54,1.3-2.91.11-6.35.47-9.23.5-1.59.01-3.2-.73-5.06-.04.23-.8,2.17-.85,2.84-.89,5.79-.4,12.2.15,18.09.04,5.56-.11,11.18-.31,16.7-.44,9.91-.24,19.8-.74,29.74-.9Z"/><path d="M212.23,177.71c.1.77-1,.41-1.53.44-4.55.18-9.1.28-13.65.44-.73.03-1.44.41-2.21.44-10.06.31-20.21.3-30.38.89-3.32.19-6.46,1.15-9.91.43-.1-.77,1-.41,1.53-.44,1.76-.07,3.53.07,5.28,0,16.87-1.91,33.91-1.51,50.86-2.19Z"/><path d="M222.79,189.15c-.07.71-1.89.83-2.43.87-3.1.26-6.54-.11-9.7-.01-1.16.03-2.23.44-3.48.48-11.69.38-22.69-.01-34.35-.48-5.67-.23-11.34.38-16.98.24,5.74-.67,11.61-.91,17.42-.68,12.86.51,23.79.32,36.53.02,4.34-.1,8.71.31,12.98-.44Z"/><path d="M224.12,184.75c.1.77-1,.41-1.53.44-2.64.11-5.32-.15-7.95-.02s-6.07.85-8.77.92c-11.53.27-21.75.01-33.48.87-1.55.11-3.31.77-4.86.87-4.12.26-8.41-.17-12.54,0-.1-.77,1-.41,1.53-.44,3.62-.15,7.42.23,11.01,0,1.55-.1,3.3-.75,4.86-.87,11.67-.88,21.52-.7,33.04-.87,2.81-.04,6.36-.79,9.21-.92,3.15-.14,6.34.13,9.48.02Z"/><path d="M219.71,166.26c.1.77-1,.41-1.53.44-1.9.08-3.82-.08-5.72,0-.86.04-1.69.44-2.63.45-2.21.04-4.43-.06-6.64,0-3.48.1-7.02.3-10.55.42-5.06.17-10.14-.05-15.19.44l5.51-.87c5.34.65,10.7-.71,15.83-.9,2.51-.1,4.84.51,7.04.48,4.64-.06,9.24-.73,13.89-.46Z"/><path d="M197.7,182.99c.1.78-.99.42-1.54.44-11.04.46-22.49-.56-33.49-.02-2.24.11-4.72.8-7.01.92-.36.02-1.61.13-.89-.46,1.88.45,4.57-.88,6.16-.88h36.77Z"/><path d="M187.57,170.66c.1.77-1,.41-1.53.44-2.19.09-4.43-.15-6.61,0-3.92.27-7.95,1.06-11.9,1.31-5.32.33-10.73.41-16.07.44-.1-.77,1-.41,1.53-.44,6.75-.28,13.52-.45,20.26-.88,4.75-.31,9.48-1.44,14.31-.87Z"/><path d="M222.79,164.06l-1.53.44-30.61.22c10.68-.88,21.42-.65,32.15-.66Z"/><path d="M208.26,173.3c.1.77-1,.41-1.53.44-4.54.19-9.13-.2-13.67-.02-2.29.09-5.19.81-7.47.89-4.11.15-8.24-.13-12.34-.01-1.04.03-2,.45-3.05.48-6.08.13-12.24.05-18.3-.24,11.06-.47,22.2-.25,33.27-.64,2.44-.09,5.45-.83,7.89-.92,5.05-.19,10.16.17,15.21.02Z"/><rect x="183.17" y="162.29" width="18.93" height=".44"/><path d="M224.12,162.3c1.94,1.45-3.98.18-4.25.16-.78-.04-1.61.34-2.55.29-2.72-.12-5.8-.67-8.61-.68,0-.78,13.99.32,15.41.22Z"/><path d="M208.26,192.68c.1.77-1,.41-1.53.44-2.64.11-5.31-.11-7.95-.02-1.04.04-2.01.46-3.05.48-3.09.04-6.19-.01-9.28,0-5.93.03-12.11-.56-18.06-.48-1.25.02-11.23,1.85-11.21.68,3.5,0,7.37-1.05,10.77-1.12,6.24-.13,12.7.51,18.93.48,7.14-.04,14.24-.56,21.38-.46Z"/><path d="M221.91,169.78c.1.77-1,.41-1.53.44-6.37.26-12.79.1-19.16.44l9.01-.89,11.69.02Z"/><rect x="212.67" y="177.26" width="9.69" height=".44"/><path d="M171.27,165.82c.1.77-1,.41-1.53.44-2.34.1-4.71-.15-7.04,0-3.66.25-7.38,1.44-11.23.87l11.23-1.31h8.58Z"/><rect x="171.72" y="159.21" width="9.25" height=".44"/><rect x="171.72" y="162.29" width="9.25" height=".44"/><path d="M221.03,182.11c.1.77-1,.41-1.53.44-4.18.17-8.38.23-12.55.44l6.39-.87h7.7Z"/><rect x="156.3" y="168.9" width="8.37" height=".44"/><rect x="162.91" y="162.73" width="8.37" height=".44"/><rect x="154.54" y="160.53" width="7.49" height=".44"/><rect x="209.15" y="192.23" width="7.49" height=".44"/><rect x="170.84" y="168.02" width="6.16" height=".44"/><rect x="149.7" y="163.61" width="6.16" height=".44"/><path d="M225.44,157.9c.1.77-1,.41-1.53.44-1.39.06-2.8-.04-4.19,0-.1-.77,1-.41,1.53-.44,1.39-.06,2.8.04,4.19,0Z"/><path d="M217.51,173.3c.1.77-1,.41-1.53.44-1.39.06-2.8-.04-4.19,0-.1-.77,1-.41,1.53-.44,1.39-.06,2.8.04,4.19,0Z"/><path d="M215.75,157.9c.1.77-1,.41-1.53.44-1.39.06-2.8-.04-4.19,0-.1-.77,1-.41,1.53-.44,1.39-.06,2.8.04,4.19,0Z"/><path d="M186.25,165.38c.1.77-1,.41-1.53.44-1.24.05-2.5-.03-3.75,0-.1-.77,1-.41,1.53-.44,1.24-.05,2.5.03,3.75,0Z"/><path d="M194.61,170.66c.1.77-1,.41-1.53.44-1.1.05-2.21-.03-3.31,0-.1-.77,1-.41,1.53-.44,1.1-.05,2.21.03,3.31,0Z"/><path d="M199.9,170.22c.1.77-1,.41-1.53.44-1.1.05-2.21-.03-3.31,0-.1-.77,1-.41,1.53-.44,1.1-.05,2.21.03,3.31,0Z"/><path d="M154.98,169.34c.1.77-1,.41-1.53.44-1.1.05-2.21-.03-3.31,0-.1-.77,1-.41,1.53-.44,1.1-.05,2.21.03,3.31,0Z"/><path d="M170.39,168.46c.1.77-1,.41-1.53.44-1.1.05-2.21-.03-3.31,0-.1-.77,1-.41,1.53-.44,1.1-.05,2.21.03,3.31,0Z"/><path d="M202.54,183.43c.1.77-1,.41-1.53.44-.95.05-1.92-.03-2.87,0-.1-.77,1-.41,1.53-.44.95-.05,1.92.03,2.87,0Z"/><path d="M207.82,158.34c.1.77-1,.41-1.53.44-.95.05-1.92-.03-2.87,0-.1-.77,1-.41,1.53-.44.95-.05,1.92.03,2.87,0Z"/><path d="M176.56,166.26c.1.77-1,.41-1.53.44-.95.05-1.92-.03-2.87,0-.1-.77,1-.41,1.53-.44.95-.05,1.92.03,2.87,0Z"/><path d="M221.03,191.79c-.61,1.02-2.94.17-3.96.43.58-1.01,2.94-.17,3.96-.43Z"/><path d="M199.46,158.34c-.61,1.02-2.94.17-3.96.43.58-1.01,2.94-.17,3.96-.43Z"/><path d="M208.26,162.3c-.39,1-2.65.19-3.52.43.39-1,2.65-.19,3.52-.43Z"/><path d="M225,192.23c-.39,1-2.65.19-3.52.43.39-1,2.65-.19,3.52-.43Z"/><path d="M153.66,160.98c-.39,1-2.65.19-3.52.43.39-1,2.65-.19,3.52-.43Z"/><path d="M170.39,159.66c-.39,1-2.65.19-3.52.43.39-1,2.65-.19,3.52-.43Z"/><path d="M206.5,182.99c-.39,1-2.65.19-3.52.43.39-1,2.65-.19,3.52-.43Z"/><rect x="186.69" y="164.94" width="3.08" height=".43"/><rect x="177" y="165.82" width="3.08" height=".43"/><rect x="222.36" y="169.34" width="2.64" height=".43"/></svg>