<?xml version="1.0" encoding="UTF-8"?><svg id="Layer_1" xmlns="http://www.w3.org/2000/svg" viewBox="0 0 360 431.84"><path d="M124.96,197.02c13.06-2.3,24.83-3.21,37.56,1.06,14.14,4.74,18.75,10.49,29.84,19.16,2.01,1.57,8.6,7.12,10.39,7.72,1.39.47,2.62.09,3.85.41,7.07,1.8,16.79,4.48,23.24,7.65,2.81,1.38,7.1,5.36,10.03,5.95,2.24.46,7.8.55,10.51.67,22.54,1.06,44.64-1.31,67.12-1.64,2.38-.03,18.27.41,18.93,1.1,1.57,1.64-2.52.45-2.92.48-2.84.16-4.24.05-6.91.03-25.26-.26-50.35,2.45-75.69,1.64-4.53-.14-10.74.03-14.57-1.94-2.62-1.35-5.32-3.96-8.05-5.27-6.8-3.25-15.32-5.26-22.63-7.2.15.97,1.96,2.03,2.76,2.57,11.19,7.54,27.9,13.28,41.48,13.43,26.64.31,51.18.35,77.83-1.53,2.39-.17,7.18-.76,8.71.97l-31.67,2.16c-21.72.2-43.64-.36-65.02-1.06-18.07-.59-36.08-14.89-49.52-25.61-11.95-9.53-18.15-17.03-34.34-20.52-9.75-2.1-20.57-.28-30.36.86l-.03,2.63c13.5-2.77,25.86-3.16,38.87,1.88,12.24,4.74,24.76,19.1,34.91,27.41,10.94,8.95,34.58,16.17,48.44,16.54,21.57.59,45.77.73,67.16-.53,2.94-.17,18.66-2.56,19.95-1.61l-.52.8c-7.71,1.26-15.44,1.46-23.2,1.83-20.25.96-40.58.77-60.69.53-14.83-.18-27.35-2.88-40.96-9.1-6.4-2.93-8.19-5.76-16.04-6.33-12.7-.93-30.32.29-43.16,1.62-13.45,1.4-30.8,7.64-43.7,12.23-18.42,6.56-51.12,21.39-70.04,13.06-7.12-3.13-12.03-7.59-13.19-15.57-2.2-15.11,24.1-30.89,36.11-35.54,8.39-3.25,17.41-4.27,26.05-6.72.72-1.01-4.86-14.79-.7-17.47.59-.38,4.01-1.38,4.86-1.53,6.06-1.03,22.84-2.38,28.64-1.72,7.26.82,5.67,11.01,6.66,16.51ZM108.86,182.27c-2.85.15-5.82.75-8.66.93-3.33.21-13.79-1.05-15.35,2.23-1.5,3.15,2.37,16.29,3.19,20.54.46,2.39,1.22,13.77,3.16,14.42,4.78.59,32.85-.11,34.23-4.55-.73-4.7-.54-9.56-1.02-14.28-.32-3.13-1.73-15.41-2.77-17.47-1.56-3.09-9.54-1.99-12.78-1.82ZM190.83,223.83c-1.05-1.17-3.96-2.71-5.4-3.92-11.65-9.8-16.85-16.97-33.18-19.56-9-1.43-16.84.28-25.74,1.16-1.27.89.38,11.81.57,13.87-.09.92-1.17,1.84-1.87,2.4-4.3,3.41-27.17,4.92-33.02,4.27-1.29-.14-2.52-.43-3.53-1.3-.91-4.74-1.32-9.63-2.08-14.41-.11-.71.36-.94-.77-.79-14.09,5.09-30.04,8.12-42.64,16.49-6.48,4.3-12.31,10.45-13.45,18.52-.53,3.71,2.54,10.02,5.9,11.95,7.78,4.47,20.34,3.53,28.72,1.34,35.87-9.39,67.04-26.79,105.1-28.6,7.58-.36,14.76,1.34,22.1-.01.07-.06-.51-1.19-.72-1.42ZM86.07,202.35c-12.31,2.3-24.61,4.77-35.7,10.91-7.55,4.17-24.57,16.61-25.56,25.57-1.61,14.64,13.15,22,25.86,21.59,26.67-.86,57.86-17.48,84.3-24.37,15.46-4.03,30.89-4.32,46.7-4.39,5.42-.02,10.76-1.3,16.27-.03l-5.12-5.19c-6.93,1.85-14.26-.3-21.24-.12-17.97.45-38.5,5.37-55.42,11.17s-48.91,19.97-66.55,19.74c-6.9-.09-16.8-2.66-19.86-9.48-2.39-5.33-.94-10.16,1.53-15.24,7.37-15.16,37.55-22.48,52.67-27.25.69-.22,1.41-.21,2.11-.27l.02-2.64Z"/></svg>